# AST/ASF file generated using VICON BodyLanguage
# -----------------------------------------------
:version 1.10
:name VICON
:units
  mass 1.0
  length 0.45
  angle deg
:documentation
   .ast/.asf automatically generated from VICON data using
   VICON BodyBuilder and BodyLanguage model FoxedUp or BRILLIANT.MOD
:root
   order TX TY TZ RX RY RZ
   axis XYZ
   position 0 0 0  
   orientation 0 0 0 
:bonedata
  begin
     id 1 
     name lhipjoint
     direction 0.661853 -0.702389 0.261917 
     length 2.64193 
     axis 0 0 0  XYZ
  end
  begin
     id 2 
     name lfemur
     direction 0.34202 -0.939693 0  
     length 7.01722  
     axis 0 0 20  XYZ
    dof rx ry rz
    limits (-160.0 20.0)
           (-70.0 70.0)
           (-60.0 70.0)
  end
  begin
     id 3 
     name ltibia
     direction 0.34202 -0.939693 0   
     length 8.25008   
     axis 0 0 20   XYZ
    dof rx
    limits (-10.0 170.0)
  end
  begin
     id 4 
     name lfoot
     direction 0.0709916 -0.195048 0.978221   
     length 2.31941   
     axis -90 7.62852e-016 20   XYZ
    dof rx rz
    limits (-45.0 90.0)
           (-70.0 20.0)
  end
  begin
     id 5 
     name ltoes
     direction 1.53586e-011 -4.22017e-011 1   
     length 1.16486   
     axis -90 7.62852e-016 20   XYZ
    dof rx
    limits (-90.0 20.0)
  end
  begin
     id 6 
     name rhipjoint
     direction -0.638185 -0.721362 0.268992   
     length 2.57244  
     axis 0 0 0  XYZ 
  end
  begin
     id 7 
     name rfemur
     direction -0.34202 -0.939693 0   
     length 7.07017   
     axis 0 0 -20   XYZ
    dof rx ry rz
    limits (-160.0 20.0)
           (-70.0 70.0)
           (-70.0 60.0)
  end
  begin
     id 8 
     name rtibia
     direction -0.34202 -0.939693 0   
     length 8.20386   
     axis 0 0 -20   XYZ
    dof rx
    limits (-10.0 170.0)
 end
 begin
     id 9 
     name rfoot
     direction -0.0822429 -0.225961 0.970658   
     length 2.32215  
     axis -90 -7.62852e-016 -20   XYZ
    dof rx rz
    limits (-45.0 90.0)
           (-20.0 70.0)
  end
  begin
     id 10 
     name rtoes
     direction -1.53597e-011 -4.21689e-011 1   
     length 1.16333   
     axis -90 -7.62852e-016 -20   XYZ
    dof rx
    limits (-90.0 20.0)
  end
  begin
     id 11 
     name lowerback
     direction -0.0131557 0.998589 -0.0514484   
     length 2.14993   
     axis 0 0 0   XYZ
    dof rx ry rz
    limits (-20.0 45.0)
           (-30.0 30.0)
           (-30.0 30.0)
  end
  begin
     id 12 
     name upperback
     direction -0.000776481 0.999993 0.00352685   
     length 2.15301   
     axis 0 0 0   XYZ
    dof rx ry rz
    limits (-20.0 45.0)
           (-30.0 30.0)
           (-30.0 30.0)
  end
  begin
     id 13 
     name thorax
     direction 0.00438186 0.999609 0.0276143   
     length 2.15424   
     axis 0 0 0   XYZ
    dof rx ry rz
    limits (-20.0 45.0)
           (-30.0 30.0)
           (-30.0 30.0)
  end
  begin
     id 14 
     name lowerneck
     direction -0.0488006 0.998094 0.0377807   
     length 1.90481   
     axis 0 0 0   XYZ
    dof rx ry rz
    limits (-20.0 45.0)
           (-30.0 30.0)
           (-30.0 30.0)
  end
  begin
     id 15 
     name upperneck
     direction 0.0443769 0.990702 -0.12861   
     length 1.91305   
     axis 0 0 0   XYZ
    dof rx ry rz
    limits (-20.0 45.0)
           (-30.0 30.0)
           (-30.0 30.0)
  end
  begin
     id 16
     name head
     direction 0.0165599 0.998647 -0.0492982  
     length 1.92369  
     axis 0 0 0   XYZ
    dof rx ry rz
    limits (-20.0 45.0)
           (-30.0 30.0)
           (-30.0 30.0)
  end
  begin
     id 17 
     name lclavicle
     direction 0.911936 0.410197 -0.0105506  
     length 3.52622  
     axis 0 0 0   XYZ
    dof ry rz
    limits (-20.0 10.0)
           (0.0 20.0)
  end
  begin
     id 18 
     name lhumerus
     direction 1 -4.48974e-011 -2.48591e-028   
     length 5.47651   
     axis 180 -30 -90   XYZ
    dof rx ry rz
    limits (-60.0 90.0)
           (-90.0 90.0)
           (-90.0 90.0)
  end
  begin
     id 19
     name lradius
     direction 1 -4.48938e-011 -4.40099e-027   
     length 3.09058   
     axis 180 -30 -90   XYZ
    dof rx
    limits (-10.0 170.0)
  end
  begin
     id 20
     name lwrist
     direction 1 -4.49042e-011 -2.99852e-027   
     length 1.54529   
     axis 1.95339e-015 90 90   XYZ
    dof ry
    limits (-180.0 0.0)
 end
  begin
     id 21 
     name lhand
     direction 1 -4.48815e-011 -5.98193e-027   
     length 0.771611   
     axis 3.82337e-015 90 90   XYZ
    dof rx rz
    limits (-90.0 90.0)
           (-45.0 45.0)
  end
  begin
     id 22 
     name lfingers
     direction 1 -4.49034e-011 -1.1993e-026   
     length 0.622093   
     axis 7.64668e-015 90 90   XYZ
    dof rx
    limits (0.0 90.0)
  end
  begin
     id 23
     name lthumb
     direction 0.707107 -6.34867e-011 0.707107   
     length 0.893204   
     axis -90 45 -1.62303e-014   XYZ
    dof rx rz
    limits (-45.0 45.0)
           (-45.0 45.0)
  end
  begin
     id 24 
     name rclavicle
     direction -0.93442 0.355634 -0.0195692   
     length 3.62463  
     axis 0 0 0   XYZ 
    dof ry rz
    limits (-10.0 20.0)
           (-20.0 0.0)
  end
  begin
     id 25 
     name rhumerus
     direction -1 -4.48957e-011 -1.19147e-027  
     length 5.14182   
     axis 180 30 90   XYZ
    dof rx ry rz
    limits (-90.0 60.0)
           (-90.0 90.0)
           (-90.0 90.0)
  end
  begin
     id 26 
     name rradius
     direction -1 -4.48952e-011 -3.81062e-027   
     length 3.35565   
     axis 180 30 90   XYZ
    dof rx
    limits (-10.0 170.0)
  end
  begin
     id 27 
     name rwrist
     direction -1 -4.48973e-011 -2.99621e-027   
     length 1.67782   
     axis 1.95339e-015 -90 -90   XYZ
    dof ry
    limits (-180.0 0.0)
  end
  begin
     id 28
     name rhand
     direction -1 -4.48895e-011 -5.98727e-027   
     length 0.801042   
     axis 3.82337e-015 -90 -90   XYZ
    dof rx rz
    limits (-90.0 90.0)
           (-45.0 45.0)
  end
  begin
     id 29
     name rfingers
     direction -1 -4.49065e-011 -1.19972e-026   
     length 0.645821   
     axis 7.64668e-015 -90 -90   XYZ
    dof rx
    limits (0.0 90.0)
  end
  begin
     id 30
     name rthumb
     direction -0.707107 -6.34957e-011 0.707107   
     length 0.927273   
     axis -90 -45 1.62303e-014   XYZ
    dof rx rz
    limits (-45.0 45.0)
           (-45.0 45.0)
  end
:hierarchy
  begin
    root lhipjoint rhipjoint lowerback
    lhipjoint lfemur
    lfemur ltibia
    ltibia lfoot
    lfoot ltoes
    rhipjoint rfemur
    rfemur rtibia
    rtibia rfoot
    rfoot rtoes
    lowerback upperback
    upperback thorax
    thorax lowerneck lclavicle rclavicle
    lowerneck upperneck
    upperneck head
    lclavicle lhumerus
    lhumerus lradius
    lradius lwrist
    lwrist lhand lthumb
    lhand lfingers
    rclavicle rhumerus
    rhumerus rradius
    rradius rwrist
    rwrist rhand rthumb
    rhand rfingers
  end

#!OML:ASF E:\Style4\Style4.ASF
:FULLY-SPECIFIED
:DEGREES
233
root 1.28782 17.7701 -1.75248 8.5012 15.7262 10.6348
lowerback 16.0368 5.78775 9.49521
upperback 10.3325 8.83476 4.76563
thorax 2.86565 4.78489 -1.30861
lowerneck 6.34083 -17.1224 -12.3226
upperneck 22.1704 -24.4103 9.22443
head 8.63569 -11.7462 3.18291
rclavicle -5.24792e-014 4.77083e-014
rhumerus 74.1639 10.291 -73.6089
rradius 35.7717
rwrist -66.2107
rhand 2.71317 7.18431
rfingers 7.12502
rthumb 28.1864 -20.7164
lclavicle -5.24792e-014 4.77083e-014
lhumerus 73.1676 40.3982 26.3719
lradius 105.412
lwrist 74.246
lhand 35.756 41.0501
lfingers 7.12502
lthumb 58.7938 56.0372
rfemur -22.9825 -12.2552 3.2516
rtibia 38.8955
rfoot -18.1753 -23.3306
rtoes -6.27489
lfemur -19.0956 -2.99844 -34.8553
ltibia 21.8884
lfoot -7.24535 -0.61445
ltoes -10.828
234
root 1.31482 17.7657 -1.76025 8.38584 15.0023 10.6862
lowerback 16.1123 5.76616 9.33987
upperback 10.3561 8.78967 4.79232
thorax 2.81637 4.75122 -1.20391
lowerneck 6.38466 -17.1052 -12.3449
upperneck 22.1168 -24.3814 9.15485
head 8.59971 -11.7444 3.17327
rclavicle -9.70069e-014 1.27222e-014
rhumerus 73.7009 9.9611 -75.1056
rradius 34.8463
rwrist -65.5179
rhand 1.44988 7.52245
rfingers 7.12502
rthumb 26.9784 -20.5713
lclavicle -9.70069e-014 1.27222e-014
lhumerus 73.1184 40.3772 26.4773
lradius 105.475
lwrist 74.2382
lhand 35.7607 41.1147
lfingers 7.12502
lthumb 58.7979 56.0979
rfemur -23.1567 -12.0861 3.05288
rtibia 38.8879
rfoot -17.7902 -22.9798
rtoes -7.10692
lfemur -19.1329 -2.73888 -35.0363
ltibia 22.0264
lfoot -7.40437 -0.307145
ltoes -9.9021
235
root 1.33979 17.7628 -1.76868 8.22771 14.2762 10.5881
lowerback 16.2255 5.74044 9.33238
upperback 10.3734 8.76173 4.83174
thorax 2.76617 4.73213 -1.16898
lowerneck 6.46895 -17.1068 -12.4643
upperneck 22.0546 -24.4066 9.21234
head 8.59067 -11.7681 3.21021
rclavicle 2.54444e-014 2.22639e-014
rhumerus 73.2792 9.55786 -76.5231
rradius 33.9669
rwrist -65.0233
rhand -0.00541053 7.85214
rfingers 7.12502
rthumb 25.5852 -20.4494
lclavicle 2.54444e-014 2.22639e-014
lhumerus 73.2011 40.3556 26.5705
lradius 105.437
lwrist 74.2255
lhand 35.7635 40.9883
lfingers 7.12502
lthumb 58.8003 55.9692
rfemur -23.3205 -11.8454 3.03401
rtibia 38.8694
rfoot -17.5182 -22.6059
rtoes -7.55517
lfemur -19.1797 -2.45518 -35.0615
ltibia 22.2042
lfoot -7.60826 0.0597332
ltoes -10.3317
236
root 1.36561 17.759 -1.77796 8.10399 13.5638 10.4742
lowerback 16.3246 5.68434 9.42523
upperback 10.3642 8.70661 4.79621
thorax 2.72187 4.7061 -1.2612
lowerneck 6.51958 -17.165 -12.2584
upperneck 22.0344 -24.4611 9.05708
head 8.53409 -11.7934 3.13819
rclavicle 3.18055e-015 -9.85972e-014
rhumerus 72.8906 9.08595 -78.0027
rradius 33.1346
rwrist -64.7329
rhand -1.72093 8.33573
rfingers 7.12502
rthumb 23.941 -20.1917
lclavicle 3.18055e-015 -9.85972e-014
lhumerus 73.2827 40.3577 26.5965
lradius 105.43
lwrist 74.1941
lhand 35.9272 40.8999
lfingers 7.12502
lthumb 58.942 55.7449
rfemur -23.5292 -11.5923 3.04166
rtibia 38.8398
rfoot -17.1828 -22.3163
rtoes -7.90964
lfemur -19.3103 -2.22799 -35.0591
ltibia 22.4528
lfoot -7.81834 0.55393
ltoes -11.0234
237
root 1.39294 17.7536 -1.78693 7.93345 12.8258 10.3875
lowerback 16.5221 5.68954 9.66014
upperback 10.4027 8.75644 4.66907
thorax 2.72892 4.74571 -1.53854
lowerneck 6.47814 -17.3578 -11.5543
upperneck 21.8528 -24.6454 8.78599
head 8.37036 -11.8537 2.95634
rclavicle 5.56597e-014 1.90833e-014
rhumerus 72.6219 8.20601 -79.7976
rradius 32.1805
rwrist -64.2251
rhand -3.40763 8.72861
rfingers 7.12502
rthumb 22.3227 -20.0019
lclavicle 5.56597e-014 1.90833e-014
lhumerus 73.7461 40.2859 26.9471
lradius 105.525
lwrist 74.085
lhand 36.0897 40.849
lfingers 7.12502
lthumb 59.0823 55.5579
rfemur -23.6934 -11.3532 3.0016
rtibia 38.814
rfoot -16.802 -22.0006
rtoes -8.49616
lfemur -19.4313 -1.95867 -35.0928
ltibia 22.7983
lfoot -8.05337 0.998135
ltoes -11.3868
